# xmcd
#
# Track frame offsets: 
#        150
#        10252
#        21494
#        32586
#        42202
#        52489
#        60937
#        69609
#        79941
#        92068
#        102567
#        112418
#        124915
#        134120
#        144165
#        153226
#
# Disc length: 2176 seconds
#
# Revision: 7
# Processed by: cddbd v1.5.2PL0 Copyright (c) Steve Scherf et al.
# Submitted via: ExactAudioCopy v1.0b3
#
DISCID=ea087e10
DTITLE=Cash, Johnny - The Legend Lives On [Disc 2]
DYEAR=2004
DGENRE=Country
TTITLE0=Ballad Of A Teenage Queen
TTITLE1=Belshazza
TTITLE2=Cry, Cry, Cry
TTITLE3=Down The Street To 301
TTITLE4=Get Rhythm
TTITLE5=Guess Things Happen That Way
TTITLE6=I Forgot To Remember To Forget
TTITLE7=Straight A's In Love
TTITLE8=Thanks A Lot
TTITLE9=The Ways Of A Woman In Love
TTITLE10=Hey Porter
TTITLE11=Give My Love To Rose
TTITLE12=Luther's Boogie
TTITLE13=I Could Never Be Ashamed Of You
TTITLE14=Blue Train
TTITLE15=Goodbye Little Darlin'
EXTD=YEAR: 2004
EXTT0=
EXTT1=
EXTT2=
EXTT3=
EXTT4=
EXTT5=
EXTT6=
EXTT7=
EXTT8=
EXTT9=
EXTT10=
EXTT11=
EXTT12=
EXTT13=
EXTT14=
EXTT15=
PLAYORDER=
